PathFileType	4	(X/Y/Z)	D:\Share\Shared_Data\Ergonomics\Sit To Stand Pertubation\S0\Perturbed STS.trc
DataRate	CameraRate	NumFrames	NumMarkers	Units	OrigDataRate	OrigDataStartFrame	OrigNumFrames	
100	100	6	18	m	100	6251	181
Frame#	Time	R_Heel			R_ASIS			R_Pelvis			V_Sacral			L_Pelvis			L_ASIS			Clavical			R_Acromium			L_Acromium			Sternum			Torso			R_Thigh_Med			R_Thigh_Lat			R_Thigh			R_Shank_Med			R_Shank_Lat			R_Shank			R_Toe			
		X1	Y1	Z1	X2	Y2	Z2	X3	Y3	Z3	X4	Y4	Z4	X5	Y5	Z5	X6	Y6	Z6	X7	Y7	Z7	X8	Y8	Z8	X9	Y9	Z9	X10	Y10	Z10	X11	Y11	Z11	X12	Y12	Z12	X13	Y13	Z13	X14	Y14	Z14	X15	Y15	Z15	X16	Y16	Z16	X17	Y17	Z17	X18	Y18	Z18	

6251	18.85	0.15093944	0.039940639	0.1449991	0.24041835	0.9599007	0.14665198	0.12524553	0.99960095	0.19580447	-0.007102663	1.0185948	-0.028305973	0.1268018	0.98661432	-0.21561957	0.23741655	0.94311987	-0.16680847	0.38088434	1.3596328	-0.025708546	0.32357764	1.4462573	0.11226247	0.31761517	1.4491147	-0.17511391	0.38681866	1.2619235	-0.04072575	0.37257831	1.3125581	-0.14668909	0.30296988	0.48990924	0.045197968	0.2996731	0.51274219	0.17515559	0.34051489	0.65899988	0.10759974	0.24925638	0.098929672	0.095516769	0.19393767	0.086758942	0.18704059	0.24964507	0.31303094	0.19769571	0.37928497	0.049652653	0.13515503
6252	18.86	0.15100983	0.039993229	0.14499925	0.24353474	0.96246674	0.14698314	0.12791454	1.0013288	0.19600063	-0.0041572237	1.0196033	-0.028215113	0.12999728	0.98817041	-0.21535849	0.24098624	0.94567157	-0.16657414	0.37987561	1.3641901	-0.025311617	0.32148038	1.4500497	0.1127557	0.31564014	1.4529633	-0.17487241	0.38693872	1.2665184	-0.040336052	0.37199741	1.3169796	-0.14637234	0.30231445	0.49007657	0.045152161	0.29885938	0.5130188	0.17500401	0.34120615	0.65884174	0.10765242	0.24937155	0.098917091	0.095651932	0.19387502	0.08673761	0.18704076	0.24889972	0.31317206	0.19763274	0.37952042	0.049379589	0.1355677
6253	18.87	0.15110371	0.040061539	0.14499953	0.2466288	0.96493774	0.14731464	0.13055408	1.0029543	0.19618352	-0.0012338444	1.0205223	-0.028136719	0.13317561	0.98963159	-0.2151055	0.24456606	0.9481427	-0.16635771	0.37886868	1.3685736	-0.024905243	0.31938953	1.4536685	0.11324804	0.31368445	1.4566367	-0.17462785	0.38703674	1.2709534	-0.039943886	0.3714191	1.3212362	-0.14604956	0.30164572	0.49023648	0.045069004	0.29805438	0.51329004	0.17481085	0.34185968	0.65866113	0.10764556	0.24952345	0.09889241	0.095781731	0.1938327	0.086719063	0.18703271	0.24816772	0.31332617	0.1975396	0.37981262	0.04906163	0.13600035
6254	18.88	0.15121306	0.040139076	0.14500351	0.24969643	0.9673111	0.14765001	0.13316098	1.0044689	0.19635582	0.0016628428	1.0213534	-0.028071993	0.13633031	0.991005	-0.21486285	0.24814951	0.95053448	-0.16616069	0.37786978	1.3727883	-0.024491543	0.31731122	1.4571185	0.11374106	0.31174554	1.4601382	-0.17437915	0.38711566	1.2752301	-0.039548534	0.37084409	1.3253301	-0.1457195	0.30096341	0.49038986	0.044945168	0.29726154	0.51355707	0.17457539	0.34247116	0.65845874	0.10756718	0.24969583	0.098860802	0.095906509	0.19380348	0.086702919	0.18702069	0.24744189	0.31349203	0.19741522	0.38013513	0.048727276	0.13642696
6255	18.89	0.15132867	0.040219101	0.14501402	0.2527327	0.96958337	0.14799133	0.13573129	1.0058671	0.19651804	0.0045294995	1.0220992	-0.028023308	0.13945712	0.99229938	-0.21463303	0.25172528	0.95284766	-0.16598413	0.37688284	1.376838	-0.024071661	0.31525244	1.4604049	0.11423651	0.30982104	1.4634728	-0.17412582	0.38717697	1.2793503	-0.039149479	0.37027301	1.3292648	-0.14538068	0.30027029	0.49053796	0.044778271	0.29648517	0.51382092	0.1742982	0.34303726	0.65823621	0.107408	0.24987187	0.098827606	0.096025581	0.19377971	0.086689232	0.18700778	0.24671082	0.31366626	0.19726262	0.3804588	0.048403999	0.13682204
6256	18.9	0.15144254	0.040296658	0.14503189	0.25573254	0.97175146	0.14833939	0.13826114	1.0071479	0.19666789	0.0073640227	1.0227659	-0.027993469	0.14255429	0.99352325	-0.21441814	0.25527541	0.95508063	-0.16582736	0.37590854	1.3807263	-0.023646498	0.31322006	1.4635333	0.11473576	0.30790912	1.4666453	-0.17386816	0.3872215	1.283317	-0.038746845	0.36970609	1.3330438	-0.14503239	0.29957156	0.49068277	0.04456897	0.2957294	0.51408234	0.17398087	0.34355911	0.65799713	0.10716403	0.25003915	0.098797234	0.096136848	0.19375502	0.08667852	0.18699481	0.24596487	0.31384589	0.19708812	0.38075934	0.048111916	0.13716666
